<svg width="56" height="21" viewBox="0 0 56 21" fill="none" xmlns="http://www.w3.org/2000/svg">
<g clip-path="url(#clip0_1204_146)">
<mask id="mask0_1204_146" style="mask-type:luminance" maskUnits="userSpaceOnUse" x="0" y="0" width="56" height="21">
<path d="M55.156 0.740234H0.659851V20.7402H55.156V0.740234Z" fill="white"/>
</mask>
<g mask="url(#mask0_1204_146)">
<path d="M41.929 10.938V15.3372H43.729V11.2085C43.729 9.36821 46.2313 9.36821 46.2313 9.36821V7.57983C46.2313 7.57983 45.5328 7.61239 44.9801 7.7372C43.4142 8.08836 41.929 8.86356 41.929 10.9418V10.938Z" fill="white"/>
<path d="M28.3468 7.48676C29.0491 7.48676 29.925 7.8821 30.401 8.58056C30.8933 7.94722 31.7088 7.51466 32.7134 7.49916C33.9886 7.48288 35.5669 8.27823 35.5669 10.6596V15.3255H33.7669V10.6596C33.7669 9.86428 33.194 9.29529 32.3344 9.29529C31.4747 9.29529 30.901 9.86428 30.901 10.6596V15.3255H29.101V10.6596C29.101 9.86428 28.5282 9.29529 27.6685 9.29529C26.8088 9.29529 26.2196 9.86428 26.2196 10.6596V15.3255H24.3266V7.71699H26.2196V8.47978C26.732 7.86195 27.4785 7.479 28.3545 7.479L28.3468 7.48676Z" fill="white"/>
<path d="M39.7134 7.81763V15.3331H37.8809V7.81763H39.7134Z" fill="white"/>
<path d="M38.7924 6.62322C39.3575 6.62322 39.8133 6.16741 39.8133 5.60617C39.8133 5.04493 39.3575 4.58911 38.7924 4.58911C38.2273 4.58911 37.7715 5.04493 37.7715 5.60617C37.7715 6.16741 38.2273 6.62322 38.7924 6.62322Z" fill="white"/>
<path d="M51.1235 7.47119C48.9033 7.47119 47.1072 9.25958 47.1072 11.4673C47.1072 13.6751 48.9072 15.4635 51.1235 15.4635C53.3397 15.4635 55.1397 13.6751 55.1397 11.4673C55.1397 9.25958 53.3397 7.47119 51.1235 7.47119ZM51.1235 13.6666C49.8684 13.6666 48.8514 12.6534 48.8514 11.4022C48.8514 10.1511 49.8684 9.13787 51.1235 9.13787C52.3785 9.13787 53.3963 10.1511 53.3963 11.4022C53.3963 12.6534 52.3793 13.6666 51.1235 13.6666Z" fill="white"/>
<path d="M15.6165 0.794434C18.3615 0.794452 20.5894 3.02238 20.5894 5.76733V15.7123C20.5894 18.4572 18.3615 20.6851 15.6165 20.6851H5.67073C2.92657 20.6859 0.698678 18.4572 0.698669 15.713V5.76733C0.698669 3.02316 2.92656 0.794448 5.67073 0.794434H15.6165ZM6.70483 8.70219L4.90099 16.9278H6.70483L10.1638 8.11691L8.50875 16.9278H10.3126L13.6227 7.52696L12.1173 16.9278H13.9212L17.2312 6.64715L13.9212 4.59289V4.58902H12.1173L13.6227 7.23241L10.3126 4.58902H8.50875L10.1638 7.81766L6.70483 4.58902H4.90099L6.70483 8.70219Z" fill="white"/>
</g>
</g>
<defs>
<clipPath id="clip0_1204_146">
<rect width="54.4961" height="20" fill="white" transform="translate(0.659851 0.740234)"/>
</clipPath>
</defs>
</svg>
