<svg width="139" height="28" viewBox="0 0 139 28" fill="none" xmlns="http://www.w3.org/2000/svg">
<g clip-path="url(#clip0_110_92638)">
<path d="M10.5713 20.7535H14.1965C14.1965 22.7596 15.8146 24.3769 17.8217 24.3769C19.8288 24.3769 21.4469 22.7596 21.4469 20.7535H25.0722C25.0722 24.7501 21.8359 28.0002 17.8217 28.0002C13.8075 27.9846 10.5713 24.7501 10.5713 20.7535Z" fill="white"/>
<path d="M25.05 13.5004V20.7472H21.4248V13.5004H25.05Z" fill="white"/>
<path d="M14.1849 13.5109L14.1849 20.7576H10.5597L10.5597 13.5109H14.1849Z" fill="white"/>
<path d="M17.8059 0.972784L16.0011 4.11409C14.274 3.11884 12.0491 3.70977 11.0533 5.43592C10.0576 7.16207 10.6488 9.38582 12.3758 10.3811L10.571 13.5224C7.10138 11.5163 5.9189 7.09977 7.926 3.63193C9.91754 0.164078 14.3518 -1.03328 17.8059 0.972784Z" fill="white"/>
<path d="M16.8123 17.1542L10.5334 13.5309L12.346 10.3931L18.6249 14.0164L16.8123 17.1542Z" fill="white"/>
<path d="M22.2432 7.745L15.9643 4.12164L17.7769 0.983841L24.0558 4.6072L22.2432 7.745Z" fill="white"/>
<path d="M24.092 4.59609L25.8969 7.7374C27.6239 6.74215 29.8488 7.33308 30.8446 9.05923C31.8403 10.7854 31.2491 13.0091 29.5221 14.0044L31.3269 17.1457C34.7965 15.1396 35.979 10.7231 33.9719 7.25523C31.9804 3.77183 27.5461 2.59003 24.092 4.59609Z" fill="white"/>
<path d="M25.0344 20.7853L23.2218 17.6474L29.5858 13.975L31.3984 17.1128L25.0344 20.7853Z" fill="white"/>
<path d="M19.5926 11.3888L17.78 8.25099L24.318 4.4781L26.1306 7.61594L19.5926 11.3888Z" fill="white"/>
<path d="M47.4809 24V4.12H52.1849L60.0809 17.84V4.12H64.3369V24H59.5769L51.7369 10.756V24H47.4809ZM75.9341 24.448C70.2221 24.448 66.7781 20.22 66.7781 14.088C66.7781 8.096 70.2781 3.672 76.2141 3.672C81.3661 3.672 84.0261 6.416 84.8941 10.644L80.4701 10.84C80.0781 8.628 78.8461 7.256 76.2421 7.256C72.7981 7.256 71.1461 10.196 71.1461 14.088C71.1461 18.064 72.7421 20.864 76.2981 20.864C78.9301 20.864 80.5821 19.156 80.7501 16.776H76.2421V13.668H84.9501V24H82.3181L82.1781 21.144C81.1421 23.16 78.7621 24.448 75.9341 24.448ZM87.7593 24V4.12H95.7113C100.471 4.12 103.355 6.584 103.355 10.616C103.355 14.648 100.471 17.14 95.7113 17.14H92.0153V24H87.7593ZM95.4593 13.556C97.6993 13.556 98.9873 12.548 98.9873 10.616C98.9873 8.684 97.6993 7.704 95.4593 7.704H92.0153V13.556H95.4593ZM102.316 24L109.484 4.12H114.524L121.692 24H117.268L115.812 19.772H108.168L106.712 24H102.316ZM109.372 16.272H114.636L112.004 8.6L109.372 16.272ZM126.608 24V16.272L119.72 4.12H124.424L128.764 12.128L133.076 4.12H137.78L130.892 16.272V24H126.608Z" fill="white"/>
</g>
<defs>
<clipPath id="clip0_110_92638">
<rect x="0.949036" width="138" height="28" rx="4" fill="white"/>
</clipPath>
</defs>
</svg>
