<svg width="168" height="40" viewBox="0 0 168 40" fill="none" xmlns="http://www.w3.org/2000/svg">
<g id="aliexpress_logo.svg" clip-path="url(#clip0_180_729)">
<g id="layer1">
<g id="g43">
<g id="g32">
<path id="path12" d="M43.3831 29.787V3.32861H58.953V6.65724H46.6118V14.7868H57.6998V18.1154H46.6118V26.4156H59.8239V29.7443H43.3831V29.787Z" fill="white"/>
<path id="path14" d="M76.18 29.787L70.8272 22.7457L65.4744 29.787H61.6934L69.0004 20.3772L61.2898 10.6687H65.5381L70.806 17.9447L76.1588 10.6687H80.3221L73.0151 20.3772L79.9398 29.787H76.18Z" fill="white"/>
<path id="path16" d="M85.1437 26.9491V39.9862H81.915V20.4625C81.915 15.4909 85.696 10.1992 91.5799 10.1992C97.5487 10.1992 102.052 13.9973 102.052 20.2278C102.052 26.3089 97.485 30.4911 92.3021 30.4911C89.7956 30.4911 86.397 29.4028 85.1437 26.9491ZM98.6745 20.2278C98.6745 15.9603 95.9131 13.4425 91.0489 13.6772C88.6911 13.7626 85.08 15.4909 85.3774 21.572C85.4624 23.5564 87.5015 27.2691 91.9835 27.2691C95.8494 27.2691 98.6745 25.05 98.6745 20.2278Z" fill="white"/>
<path id="path18" d="M104.813 29.7871V10.6688H108.042V12.7172C109.614 10.9035 112.057 10.2634 114.648 10.2634V13.7414C114.244 13.6561 110.4 13.1866 108.042 18.2436V29.8511H104.813V29.7871Z" fill="white"/>
<path id="path20" d="M115.519 20.2278C115.519 14.7014 119.449 10.1992 124.887 10.1992C131.641 10.1992 134.169 14.7014 134.169 20.4625V22.0415H119.066C119.3 25.6688 122.529 27.5678 125.524 27.5038C127.733 27.4185 129.22 26.7997 130.792 25.2207L132.916 27.4398C130.94 29.3388 128.434 30.5977 125.375 30.5977C119.597 30.4911 115.519 26.2236 115.519 20.2278ZM124.632 13.4425C121.573 13.4425 119.194 16.131 119.045 19.0542H130.77C130.77 16.195 128.731 13.4425 124.632 13.4425Z" fill="white"/>
<path id="path22" d="M135.805 27.0986L138.162 24.9649C138.078 24.9649 139.352 26.2238 139.501 26.3091C140.053 26.7786 140.605 27.0986 141.306 27.248C143.345 27.8027 147.041 27.6534 147.36 24.7942C147.509 23.2152 146.34 22.3404 145.002 21.7856C143.282 21.1455 141.391 20.9108 139.649 20.1213C137.674 19.2465 136.421 17.7529 136.421 15.5338C136.421 9.77268 144.599 8.8125 148.295 11.501C148.443 11.6504 150.27 13.3147 150.185 13.3147L147.827 15.2137C146.638 13.7841 145.555 13.08 143.027 13.08C141.774 13.08 140.032 13.6347 139.713 14.979C139.246 16.878 141.37 17.5822 142.772 17.9876C144.662 18.457 146.702 18.777 148.358 19.8012C150.631 21.2308 151.183 24.3034 150.334 26.6719C149.399 29.275 146.553 30.2992 144.046 30.3846C141.073 30.5766 138.481 29.6378 136.357 27.504C136.187 27.504 135.805 27.0986 135.805 27.0986Z" fill="white"/>
<path id="path24" d="M152.394 27.0986L154.752 24.9649C154.667 24.9649 155.941 26.2238 156.09 26.3091C156.642 26.7786 157.195 27.0986 157.896 27.248C159.935 27.8027 163.631 27.6534 163.949 24.7942C164.098 23.2152 162.93 22.3404 161.592 21.7856C159.871 21.1455 157.981 20.9108 156.239 20.1213C154.263 19.2465 153.01 17.7529 153.01 15.5338C153.01 9.77268 161.188 8.8125 164.884 11.501C165.033 11.6504 166.859 13.3147 166.774 13.3147L164.417 15.2137C163.227 13.7841 162.144 13.08 159.616 13.08C158.363 13.08 156.621 13.6347 156.302 14.979C155.835 16.878 157.959 17.5822 159.361 17.9876C161.252 18.457 163.291 18.777 164.948 19.8012C167.221 21.2308 167.773 24.3034 166.923 26.6719C165.989 29.275 163.142 30.2992 160.636 30.3846C157.641 30.5339 155.049 29.5951 152.925 27.4614C152.798 27.504 152.394 27.0986 152.394 27.0986Z" fill="white"/>
</g>
<g id="g41">
<path id="path34" d="M21.5046 29.7868L19.1468 23.4709H6.40194L4.04414 29.7868H0.666748L10.8839 3.30713H14.5799L24.7333 29.7868H21.5046ZM12.6257 7.10518L7.82511 20.2277H17.8086L12.6257 7.10518Z" fill="white"/>
<path id="path36" d="M26.8572 29.787V3.32861H30.1708V29.8083H26.8572V29.787Z" fill="white"/>
<path id="path38" d="M35.1204 29.7869V11.0527H38.434V29.7869H35.1204Z" fill="white"/>
<path id="XMLID_1_" d="M41.5777 4.97175C41.5777 4.8864 41.5777 4.8864 41.5777 4.82239C41.5777 4.73704 41.5777 4.73704 41.5777 4.67303C39.0712 4.58768 37.0108 2.53929 36.9471 0.0214844C36.8621 0.0214844 36.7984 0.0214844 36.7134 0.0214844C36.6284 0.0214844 36.5647 0.0214844 36.4798 0.0214844C36.3948 2.53929 34.3556 4.60902 31.8491 4.67303C31.8491 4.75838 31.8491 4.75838 31.8491 4.82239C31.8491 4.90774 31.8491 4.90774 31.8491 4.97175C34.3556 5.0571 36.416 7.10549 36.4798 9.6233C36.5647 9.6233 36.6284 9.6233 36.7134 9.6233C36.7984 9.6233 36.8621 9.6233 36.9471 9.6233C37.0108 7.10549 39.05 5.0571 41.5777 4.97175Z" fill="white"/>
</g>
</g>
</g>
</g>
<defs>
<clipPath id="clip0_180_729">
<rect width="166.667" height="40" fill="white" transform="translate(0.666748)"/>
</clipPath>
</defs>
</svg>
