<svg width="196" height="24" viewBox="0 0 196 24" fill="none" xmlns="http://www.w3.org/2000/svg">
<g id="farfetch_logo.svg" clip-path="url(#clip0_180_667)">
<path id="Vector" d="M33.1589 10.3068C32.5297 8.94886 32.2036 8.24432 31.7632 7.1875C31.357 8.24432 31.2198 8.56818 30.4533 10.3864L28.9546 14.0455H34.8521L33.1589 10.3068ZM27.2614 18.5739L25.1564 23.1875H19.0072L29.7154 0.784091H34.9036L45.606 23.1875H39.5483L37.2603 18.5739H27.2614ZM60.9246 10.4943C62.1773 10.4943 62.6979 10.4148 63.2127 10.142C63.6152 9.91124 63.9503 9.5803 64.185 9.1818C64.4197 8.7833 64.5459 8.33097 64.5512 7.86932C64.5437 7.40814 64.4166 6.95667 64.1821 6.55855C63.9476 6.16043 63.6137 5.82911 63.2127 5.59659C62.7208 5.32386 62.2002 5.26705 60.9246 5.26705H53.414V10.4489L60.9246 10.4943ZM53.414 23.1875H47.7625V0.784091H62.4805C65.1003 0.784091 66.519 1.11364 67.8575 1.92045C68.7075 2.456 69.4065 3.19742 69.8888 4.07504C70.3711 4.95266 70.6209 5.93766 70.6146 6.9375C70.6146 9.59659 69.2246 11.5739 66.6848 12.6193C68.9214 13.4091 69.6078 14.6534 69.6593 18.1534C69.768 20.9489 69.9339 21.7614 70.6146 23.1989H64.391C63.9792 21.9489 63.8991 21.4375 63.9563 19.2898C63.9563 16.0398 63.0525 15.0341 60.1581 15.0341H53.414V23.1875ZM97.0418 23.1875V0.784091H117.68V5.32955H102.693V9.53409H115.936V14.0795H102.693V18.6932H117.68V23.2386L97.0418 23.1875ZM134.063 23.1875H128.411V5.3125H120.603V0.767045H141.842V5.3125H134.063V23.1875ZM169.528 14.4261C167.915 20.8011 163.522 24 156.234 24C147.934 24 142.689 19.4148 142.689 12.2045C142.689 4.81818 148.094 0 156.366 0C160.33 0 163.442 1.02841 165.896 3.22727C167.564 4.60591 168.726 6.49363 169.202 8.59659H163.11C161.966 5.75568 159.729 4.36364 156.343 4.36364C151.807 4.36364 148.672 7.53977 148.672 12.0966C148.672 16.5398 151.784 19.6364 156.234 19.6364C159.838 19.6364 161.994 18.0341 163.304 14.4261H169.528ZM189.651 0.784091V9.51705H178.028V0.784091H172.376V23.1875H178.028V14.0455H189.634V23.1875H195.28V0.784091H189.651ZM0.702637 23.1875V0.784091H20.4944V5.32955H6.35417V9.53409H19.3218V14.0795H6.35417V23.1875H0.702637ZM74.327 23.1875V0.784091H94.1245V5.32955H79.9785V9.53409H92.9748V14.0795H79.9785V23.1875H74.327Z" fill="white"/>
</g>
<defs>
<clipPath id="clip0_180_667">
<rect width="194.595" height="24" fill="white" transform="translate(0.702637)"/>
</clipPath>
</defs>
</svg>
