<svg width="132" height="24" viewBox="0 0 132 24" fill="none" xmlns="http://www.w3.org/2000/svg">
<g id="Logo Alternative.svg" clip-path="url(#clip0_180_705)">
<g id="Group">
<path id="Vector" d="M0.545166 24.0003C1.40125 23.5755 1.35369 22.1124 1.35369 21.9236C1.35369 21.5696 1.35369 3.79967 1.35369 3.06811C1.37747 2.52534 1.13967 2.00616 0.687846 1.67578H16.1924C16.1924 1.67578 15.5266 2.05336 15.5266 3.09171C15.5266 3.70528 15.5266 21.2392 15.5266 22.3247C15.5266 22.5843 15.6455 23.6227 16.3351 23.9767L0.545166 24.0003Z" fill="white"/>
<path id="Vector_2" d="M37.9274 24.0003C37.1426 23.4575 37.1664 22.3247 37.1664 22.0652C37.1664 21.8764 37.1664 18.6197 37.1664 14.8439C37.1664 14.8439 41.4944 21.6168 41.8986 22.6079C42.3505 23.6935 41.8511 24.0003 41.8511 24.0003H59.6861C59.6861 24.0003 59.4959 23.8823 59.2343 23.6699C58.616 23.2451 58.0928 22.7259 57.641 22.1124C56.999 21.2628 50.4832 10.7613 50.4832 10.7613C50.4832 10.7613 55.4057 3.96487 56.1667 2.97372C56.5709 2.47814 57.0465 2.02976 57.5697 1.67578H56.4996H42.3029C42.3029 1.67578 43.159 2.26575 42.398 3.3513C41.6371 4.43684 37.1664 10.5725 37.1664 10.5725C37.1664 6.82032 37.1664 3.3513 37.1664 3.09171C37.1426 2.54894 37.4042 2.02976 37.856 1.69938H22.7557C23.1838 2.02976 23.4453 2.54894 23.4216 3.09171C23.4453 3.82327 23.4216 21.5696 23.4216 21.9472C23.4216 22.136 23.4691 23.5991 22.613 24.0239L37.9274 24.0003Z" fill="white"/>
<path id="Vector_3" d="M62.8253 1.67578C63.2533 2.00616 63.5149 2.52534 63.4911 3.06811C63.4911 3.79967 63.4911 21.546 63.4911 21.9236C63.4911 22.1124 63.5387 23.5755 62.6826 24.0003H88.698V16.425C88.2224 16.897 87.6041 17.1566 86.9383 17.1566H76.808V15.3867H84.1084C84.5603 15.3867 85.773 15.5283 86.0822 15.9295V9.10941C85.7493 9.55779 84.5127 9.67578 84.1084 9.67578H76.7842V7.90587C76.7842 7.90587 85.2737 7.90587 86.32 7.90587C87.1998 7.92947 88.0559 8.28345 88.698 8.89702V1.67578H62.8253Z" fill="white"/>
<path id="Vector_4" d="M112.763 24.0003C112.763 24.0003 113.453 23.2452 113.215 22.3248C112.906 21.3809 112.549 20.4841 112.121 19.5874H105.463C105.463 19.5874 104.63 21.3337 104.369 22.3248C104.131 23.2452 104.821 24.0003 104.821 24.0003H91.3374C91.8606 23.5048 92.2886 22.9384 92.574 22.2776C93.0496 21.1921 99.4702 4.17734 99.7318 3.56377C100.207 2.38383 99.4226 1.69946 99.4226 1.69946H120.872C120.397 2.21864 120.254 2.9502 120.516 3.61097C120.92 4.81451 127.768 21.6641 128.078 22.2776C128.41 22.962 128.886 23.552 129.504 24.0003H112.763ZM110.552 15.5284C110.552 15.5284 108.935 11.5874 108.887 11.4458C108.744 11.0682 108.673 10.6906 108.649 10.2894H108.625C108.602 10.6906 108.53 11.0682 108.411 11.4458C108.34 11.5874 106.747 15.5284 106.747 15.5284H110.552Z" fill="white"/>
<path id="Vector_5" d="M123.844 3.82326C123.821 1.74656 125.509 0.0238451 127.602 0.000246257C129.694 -0.0233526 131.43 1.65216 131.454 3.72886C131.478 5.80556 129.789 7.52827 127.697 7.55187C127.673 7.55187 127.673 7.55187 127.649 7.55187C125.58 7.57547 123.868 5.94715 123.844 3.89405C123.844 3.87045 123.844 3.84685 123.844 3.82326ZM127.649 6.9383C129.338 6.9383 130.693 5.61677 130.693 3.82326C130.693 2.14774 129.338 0.802606 127.649 0.802606C125.961 0.802606 124.605 2.14774 124.605 3.82326C124.605 5.61677 125.937 6.9383 127.649 6.9383ZM126.865 5.97075H126.222V1.69936H127.863C128.886 1.69936 129.385 2.07694 129.385 2.9265C129.385 3.70526 128.91 4.03564 128.268 4.10644L129.504 5.99435H128.767L127.626 4.13004H126.865V5.97075ZM127.649 3.56367C128.196 3.56367 128.696 3.51647 128.696 2.8557C128.696 2.33653 128.22 2.21854 127.744 2.21854H126.841V3.56367H127.649Z" fill="white"/>
</g>
</g>
<defs>
<clipPath id="clip0_180_705">
<rect width="130.909" height="24" fill="white" transform="translate(0.54541)"/>
</clipPath>
</defs>
</svg>
