<svg width="190" height="54" viewBox="0 0 190 54" fill="none" xmlns="http://www.w3.org/2000/svg">
<g id="Logo.svg" clip-path="url(#clip0_180_605)">
<g id="Group">
<g id="Group_2">
<path id="Vector" d="M41.2763 10.2477C41.2386 9.98304 41.0126 9.83178 40.8242 9.83178C40.6358 9.83178 36.9061 9.75615 36.9061 9.75615C36.9061 9.75615 33.7791 6.73094 33.4777 6.3906C33.1763 6.08808 32.5735 6.16371 32.3474 6.23935C32.3474 6.23935 31.7447 6.42842 30.7651 6.73094C30.6144 6.20153 30.3507 5.55867 30.0116 4.878C28.9191 2.76035 27.2614 1.6259 25.3023 1.6259C25.1516 1.6259 25.0386 1.6259 24.8879 1.66371C24.8126 1.58808 24.7749 1.51245 24.6995 1.47464C23.833 0.567076 22.7405 0.113294 21.4219 0.15111C18.8977 0.22674 16.3735 2.07968 14.3014 5.33178C12.8698 7.6385 11.7772 10.5125 11.4382 12.7435C8.53722 13.6511 6.5028 14.294 6.42745 14.294C4.95815 14.7477 4.92048 14.7856 4.7321 16.1847C4.65675 17.2435 0.813965 47.0797 0.813965 47.0797L33.0633 52.6763L47.0405 49.1973C47.0028 49.1973 41.314 10.5125 41.2763 10.2477ZM29.1451 7.26035C28.3916 7.48724 27.5628 7.75195 26.6586 8.05447C26.6586 6.76876 26.4702 4.95363 25.9051 3.44103C27.8265 3.74355 28.7684 5.93682 29.1451 7.26035ZM24.9633 8.54607C23.2679 9.07548 21.4219 9.64271 19.5758 10.2099C20.1033 8.20573 21.0828 6.23934 22.2884 4.91582C22.7405 4.42422 23.3809 3.89481 24.0968 3.59229C24.8502 5.06708 25.0009 7.14691 24.9633 8.54607ZM21.4972 1.85279C22.1 1.85279 22.5898 1.96624 23.0042 2.26876C22.3261 2.60909 21.6479 3.1385 21.0451 3.81918C19.4251 5.55867 18.1819 8.24355 17.6921 10.8528C16.1475 11.3444 14.6405 11.7982 13.2842 12.2141C14.1884 8.09229 17.6168 1.96624 21.4972 1.85279Z" fill="#95BF47"/>
<g id="Group_3">
<path id="Vector_2" d="M40.8239 9.83142C40.6355 9.83142 36.9058 9.75579 36.9058 9.75579C36.9058 9.75579 33.7788 6.73058 33.4774 6.39025C33.3644 6.2768 33.2137 6.20117 33.063 6.20117V52.676L47.0402 49.197C47.0402 49.197 41.3514 10.5121 41.3137 10.2474C41.2383 9.98268 41.0123 9.83142 40.8239 9.83142Z" fill="#5E8E3E"/>
<path id="Vector_3" d="M25.3024 17.0538L23.6824 23.142C23.6824 23.142 21.874 22.3101 19.7266 22.4614C16.5619 22.6504 16.5619 24.6546 16.5619 25.1462C16.7503 27.8689 23.8708 28.474 24.2852 34.8647C24.5866 39.8941 21.648 43.3353 17.3531 43.6C12.2294 43.8647 9.40381 40.8395 9.40381 40.8395L10.4964 36.1882C10.4964 36.1882 13.3596 38.3437 15.6201 38.1924C17.0894 38.1168 17.6545 36.8689 17.5792 36.037C17.3531 32.4824 11.5513 32.7092 11.1745 26.8479C10.8731 21.9319 14.0754 16.9782 21.1582 16.5244C23.9085 16.3353 25.3024 17.0538 25.3024 17.0538Z" fill="white"/>
</g>
</g>
<g id="Group_4">
<path id="s_4_" d="M65.9525 30.0248C64.3325 29.1551 63.5037 28.3988 63.5037 27.3777C63.5037 26.092 64.6716 25.2601 66.48 25.2601C68.5897 25.2601 70.4735 26.1298 70.4735 26.1298L71.9428 21.592C71.9428 21.592 70.5865 20.5332 66.593 20.5332C61.0172 20.5332 57.1367 23.7475 57.1367 28.2475C57.1367 30.8189 58.9451 32.7475 61.3562 34.1467C63.3153 35.2433 63.9935 36.0374 63.9935 37.2097C63.9935 38.4198 63.0139 39.403 61.2055 39.403C58.5307 39.403 55.9688 38.0038 55.9688 38.0038L54.3865 42.5416C54.3865 42.5416 56.7223 44.1298 60.6781 44.1298C66.4046 44.1298 70.5488 41.2937 70.5488 36.1887C70.5111 33.4282 68.439 31.4618 65.9525 30.0248Z" fill="white"/>
<path id="h_4_" d="M88.7836 20.4581C85.958 20.4581 83.7352 21.8195 82.0398 23.8615L81.9645 23.8237L84.4133 10.9666H78.0464L71.8301 43.7145H78.1971L80.3068 32.5212C81.1357 28.2859 83.3208 25.6766 85.3552 25.6766C86.7868 25.6766 87.3519 26.6598 87.3519 28.059C87.3519 28.9287 87.2766 30.0254 87.0882 30.8951L84.6771 43.7145H91.044L93.5305 30.4792C93.7943 29.08 93.9826 27.4161 93.9826 26.2817C94.0203 22.6514 92.1366 20.4581 88.7836 20.4581Z" fill="white"/>
<path id="o_4_" d="M108.45 20.4578C100.764 20.4578 95.6782 27.4157 95.6782 35.1678C95.6782 40.1216 98.7299 44.13 104.456 44.13C111.991 44.13 117.077 37.3611 117.077 29.42C117.115 24.8443 114.44 20.4578 108.45 20.4578ZM105.323 39.2519C103.138 39.2519 102.234 37.3989 102.234 35.0544C102.234 31.3863 104.117 25.4115 107.583 25.4115C109.844 25.4115 110.597 27.3779 110.597 29.2687C110.597 33.2015 108.676 39.2519 105.323 39.2519Z" fill="white"/>
<path id="p_4_" d="M133.428 20.4578C129.133 20.4578 126.684 24.2771 126.684 24.2771H126.609L126.986 20.8359H121.334C121.071 23.1426 120.543 26.6973 120.053 29.3443L115.608 52.7897H121.975L123.746 43.2981H123.896C123.896 43.2981 125.215 44.13 127.626 44.13C135.123 44.13 140.021 36.4157 140.021 28.6258C140.021 24.3149 138.1 20.4578 133.428 20.4578ZM127.325 39.3275C125.667 39.3275 124.687 38.3821 124.687 38.3821L125.742 32.4073C126.496 28.3989 128.568 25.7519 130.791 25.7519C132.75 25.7519 133.353 27.567 133.353 29.2687C133.353 33.4284 130.904 39.3275 127.325 39.3275Z" fill="white"/>
<path id="dot_4_" d="M149.138 11.2678C147.103 11.2678 145.483 12.8939 145.483 14.9737C145.483 16.8645 146.689 18.188 148.497 18.188H148.572C150.569 18.188 152.265 16.8266 152.302 14.4821C152.302 12.6292 151.059 11.2678 149.138 11.2678Z" fill="white"/>
<path id="i_4_" d="M140.209 43.6766H146.576L150.909 20.9875H144.504L140.209 43.6766Z" fill="white"/>
<path id="f_4_" d="M167.146 20.9494H162.701L162.927 19.8906C163.304 17.6973 164.585 15.7688 166.732 15.7688C167.862 15.7688 168.766 16.1091 168.766 16.1091L170.01 11.0797C170.01 11.0797 168.917 10.5125 166.544 10.5125C164.283 10.5125 162.023 11.1553 160.29 12.6301C158.105 14.483 157.087 17.1679 156.598 19.8906L156.409 20.9494H153.433L152.491 25.7898H155.467L152.077 43.7141H158.444L161.834 25.7898H166.242L167.146 20.9494Z" fill="white"/>
<path id="y_4_" d="M182.518 20.9875C182.518 20.9875 178.524 31.0842 176.753 36.6052H176.678C176.565 34.8279 175.096 20.9875 175.096 20.9875H168.39L172.233 41.8237C172.308 42.2775 172.27 42.58 172.082 42.8825C171.328 44.3195 170.085 45.7186 168.616 46.7396C167.41 47.6094 166.054 48.1766 164.999 48.5548L166.77 54.0002C168.051 53.7354 170.763 52.6388 173.024 50.5212C175.925 47.7985 178.637 43.5632 181.387 37.8153L189.186 20.9875H182.518Z" fill="white"/>
</g>
</g>
</g>
<defs>
<clipPath id="clip0_180_605">
<rect width="188.372" height="54" fill="white" transform="translate(0.813965)"/>
</clipPath>
</defs>
</svg>
